<?xml version="1.0" encoding="UTF-8" standalone="no"?>
<svg
   xmlns:dc="http://purl.org/dc/elements/1.1/"
   xmlns:cc="http://creativecommons.org/ns#"
   xmlns:rdf="http://www.w3.org/1999/02/22-rdf-syntax-ns#"
   xmlns:svg="http://www.w3.org/2000/svg"
   xmlns="http://www.w3.org/2000/svg"
   width="199.32574mm"
   height="312.19666mm"
   viewBox="0 0 199.32574 312.19665"
   version="1.1"
   id="svg8">
  <defs
     id="defs2" />
  <metadata
     id="metadata5">
    <rdf:RDF>
      <cc:Work
         rdf:about="">
        <dc:format>image/svg+xml</dc:format>
        <dc:type
           rdf:resource="http://purl.org/dc/dcmitype/StillImage" />
        <dc:title></dc:title>
      </cc:Work>
    </rdf:RDF>
  </metadata>
  <g
     id="layer1"
     transform="translate(-396.44847,-59.423549)">
    <path
       style="fill:#ccaa10;fill-opacity:1;stroke:none;stroke-width:0.264583px;stroke-linecap:butt;stroke-linejoin:miter;stroke-opacity:1"
       d="m 486.08424,73.554133 c -18.1835,-31.199955 -30.34131,0.460757 -27.60212,23.184257 2.7392,22.72351 2.00953,33.53424 2.4578,57.10779 0.44828,23.57355 -6.41913,23.57563 -14.29363,33.72834 12.84838,3.5738 23.15025,11.31995 25.79965,38.38357 9.32884,-40.69871 14.32644,-49.26147 38.3711,-11.44443 -0.94504,-15.90413 -3.03758,-33.92547 28.41306,-36.76653 -17.99422,-16.20455 -16.55759,-13.20545 -24.69488,-45.77637 -3.05917,-22.94921 -23.59851,-78.518262 9.88632,-54.964389 -14.60795,-24.020105 -22.30193,-17.157356 -24.77609,-3.427368 -3.81051,19.877186 1.43252,38.510137 -3.14564,56.176277 -6.71633,20.2052 -11.42956,19.38785 -20.18144,1.51191 -6.14599,-15.33687 -23.35068,-80.847426 9.76587,-57.713057 z"
       id="path939" />
    <path
       style="fill:#ccaa10;fill-opacity:1;stroke:none;stroke-width:0.314061px;stroke-linecap:butt;stroke-linejoin:miter;stroke-opacity:1"
       d="m 448.346,138.48631 -43.69993,-58.839992 c -27.61601,14.612244 23.39592,103.572262 23.39592,103.572262 l -8.51789,-63.03494 z"
       id="path941" />
    <path
       style="fill:#ccaa10;fill-opacity:1;stroke:none;stroke-width:0.264583px;stroke-linecap:butt;stroke-linejoin:miter;stroke-opacity:1"
       d="m 545.11679,162.11738 33.94322,-89.802566 c 13.95778,14.967012 17.51962,20.628713 16.57072,40.892246 -0.9489,20.26353 -5.30441,55.14133 -19.77795,86.06079 -5.38638,-26.54349 -2.93996,-84.45717 -2.93996,-84.45717 z"
       id="path943" />
    <path
       style="fill:#ccaa10;fill-opacity:1;stroke:none;stroke-width:0.264583px;stroke-linecap:butt;stroke-linejoin:miter;stroke-opacity:1"
       d="m 460.23527,233.77797 c -3.7839,-11.2464 -2.59992,-22.37346 -6.78977,-28.0318 -4.18985,-5.65834 -7.97626,-2.78568 -12.75841,-8.34644 -8.54298,24.88107 11.47671,26.49443 19.54818,36.37824 z"
       id="path945" />
    <path
       style="fill:#ccaa10;fill-opacity:1;stroke:none;stroke-width:0.214169px;stroke-linecap:butt;stroke-linejoin:miter;stroke-opacity:1"
       d="m 551.97877,235.88377 c -11.50872,18.93558 -28.06145,14.82473 -37.42739,8.22104 -11.31303,23.25168 -26.91732,62.70152 2.11372,72.06476 10.20919,-37.58326 42.27918,-48.59706 35.31367,-80.2858 z"
       id="path947" />
    <path
       style="fill:#ccaa10;fill-opacity:1;stroke:none;stroke-width:0.212597px;stroke-linecap:butt;stroke-linejoin:miter;stroke-opacity:1"
       d="m 436.07617,315.52712 c 5.88135,-3.22716 24.11961,11.14806 24.11961,11.14806 0,0 18.83141,-16.11058 28.78702,-13.86345 2.33608,13.84669 -10.1506,22.33226 -22.63281,25.98765 0,0 0.0684,18.37109 8.87866,22.23665 8.81025,3.86556 12.04138,-2.96362 31.56902,-12.02631 -7.53153,21.43256 -51.68714,27.02162 -62.70853,19.32799 16.03776,-2.96901 16.23337,-1.68409 19.62384,-4.6388 4.4208,-7.51174 -8.45657,-23.49414 -8.45657,-23.49414 -12.22212,-1.46329 -22.46244,-12.9957 -19.18024,-24.67765 z"
       id="path949" />
    <path
       style="fill:#ccaa10;fill-opacity:1;stroke:none;stroke-width:0.264583px;stroke-linecap:butt;stroke-linejoin:miter;stroke-opacity:1"
       d="m 435.13289,233.91748 c 5.38251,10.33482 12.95795,14.56536 24.26617,13.80515 -3.802,17.68532 7.40845,49.66574 -16.97161,47.58069 -0.18661,-22.81745 -9.34013,-43.81114 -7.29456,-61.38584 z"
       id="path951" />
    <path
       style="fill:#ccaa10;fill-opacity:1;stroke:none;stroke-width:0.264583px;stroke-linecap:butt;stroke-linejoin:miter;stroke-opacity:1"
       d="m 558.53826,200.85148 c -13.27931,-5.41205 -23.47175,-5.94613 -30.07532,1.35601 -6.60357,7.30212 -3.62987,16.83394 -7.9862,26.62042 24.12863,-8.26398 15.08087,-22.09131 38.06152,-27.97643 z"
       id="path953" />
  </g>
</svg>
